<?xml version="1.0" encoding="UTF-8"?>
<svg xmlns="http://www.w3.org/2000/svg" xmlns:xlink="http://www.w3.org/1999/xlink" viewBox="0 0 32 32" width="256" height="256">
  <!-- Exact Yahoo 2019 favicon mark (y!) -->
  <defs>
    <polygon id="ob-yahoo-clip" points="0.171073913 0.0931111111 9.4455087 0.0931111111 9.4455087 9.92442222 0.171073913 9.92442222"/>
  </defs>
  <rect fill="#6001D2" width="32" height="32"/>
  <g transform="translate(5, 6)">
    <polygon fill="#FFFFFF" points="9.70835927 5 7.04604411 11.4197051 4.40657437 5 0 5 4.91176421 16.0265583 3.14442407 20 7.45914574 20 14 5"/>
    <g transform="translate(12, 0)">
      <path fill="#FFFFFF" d="M2.88747609,10.8773778 C1.30323696,10.8773778 0.114280435,12.0684889 0.114280435,13.4547111 C0.114280435,14.8184889 1.25660652,15.9449333 2.79421522,15.9449333 C4.37917174,15.9449333 5.56741087,14.7756 5.56741087,13.3678222 C5.56741087,11.9818222 4.42580217,10.8773778 2.88747609,10.8773778"/>
      <g transform="translate(1.434783, 0)">
        <mask id="ob-yahoo-mask" fill="white"><use xlink:href="#ob-yahoo-clip"/></mask>
        <polygon fill="#FFFFFF" mask="url(#ob-yahoo-mask)" points="4.55194348 0.0930888889 0.171073913 9.92442222 5.06487826 9.92442222 9.4455087 0.0930888889"/>
      </g>
    </g>
  </g>
</svg>
